ffmpeg started on 2016-11-26 at 21:45:14
Report written to "Output/NVENCh264/results/ffmpeg/crowd_run_2160p50ll13000k.log"
Command line:
Tools/ffmpeg/ffmpeg -benchmark -y -i Input/y4m/crowd_run_2160p50.y4m -c:v h264_nvenc -preset ll -b:v 13000k -an Output/NVENCh264/encoded/crowd_run_2160p50ll13000k.mkv
ffmpeg version N-82227-gdb23fde Copyright (c) 2000-2016 the FFmpeg developers
  built with gcc 5.4.0 (Ubuntu 5.4.0-6ubuntu1~16.04.2) 20160609
  configuration: --prefix=/home/jaroslav/ffmpeg_build --pkg-config-flags=--static --extra-cflags=-I/home/jaroslav/ffmpeg_build/include --extra-ldflags=-L/home/jaroslav/ffmpeg_build/lib --bindir=/home/jaroslav/bin --enable-gpl --enable-libass --enable-libfdk-aac --enable-libfreetype --enable-libmp3lame --enable-libopus --enable-libtheora --enable-libvorbis --enable-libvpx --enable-libx264 --enable-libx265 --enable-nvenc --enable-libmfx --enable-libxvid --enable-libgsm --enable-libopencore-amrnb --enable-version3 --enable-nonfree
  libavutil      55. 35.100 / 55. 35.100
  libavcodec     57. 66.101 / 57. 66.101
  libavformat    57. 57.100 / 57. 57.100
  libavdevice    57.  2.100 / 57.  2.100
  libavfilter     6. 66.100 /  6. 66.100
  libswscale      4.  3.100 /  4.  3.100
  libswresample   2.  4.100 /  2.  4.100
  libpostproc    54.  2.100 / 54.  2.100
Input #0, yuv4mpegpipe, from 'Input/y4m/crowd_run_2160p50.y4m':
  Duration: 00:00:10.00, start: 0.000000, bitrate: 4976642 kb/s
    Stream #0:0: Video: rawvideo (I420 / 0x30323449), yuv420p(progressive), 3840x2160, SAR 1:1 DAR 16:9, 50 fps, 50 tbr, 50 tbn, 50 tbc
[h264_nvenc @ 0x2a0a1c0] The variable bitrate rate-control requires the 'qmin' and/or 'qmax' option set.
Output #0, matroska, to 'Output/NVENCh264/encoded/crowd_run_2160p50ll13000k.mkv':
  Metadata:
    encoder         : Lavf57.57.100
    Stream #0:0: Video: h264 (h264_nvenc) (Main) (H264 / 0x34363248), yuv420p, 3840x2160 [SAR 1:1 DAR 16:9], q=-1--1, 13000 kb/s, 50 fps, 1k tbn, 50 tbc
    Metadata:
      encoder         : Lavc57.66.101 h264_nvenc
    Side data:
      cpb: bitrate max/min/avg: 0/0/13000000 buffer size: 26000000 vbv_delay: -1
Stream mapping:
  Stream #0:0 -> #0:0 (rawvideo (native) -> h264 (h264_nvenc))
Press [q] to stop, [?] for help
frame=    5 fps=0.0 q=0.0 size=       0kB time=00:00:00.00 bitrate=N/A speed=   0x    frame=   15 fps= 12 q=0.0 size=       0kB time=00:00:00.00 bitrate=N/A speed=   0x    frame=   28 fps= 16 q=0.0 size=       0kB time=00:00:00.00 bitrate=N/A speed=   0x    frame=   40 fps= 18 q=41.0 size=       1kB time=00:00:00.18 bitrate=  33.1kbits/s speed=0.0805x    frame=   58 fps= 21 q=41.0 size=       1kB time=00:00:00.54 bitrate=  11.1kbits/s speed=0.196x    frame=   76 fps= 23 q=41.0 size=       1kB time=00:00:00.90 bitrate=   6.6kbits/s speed=0.274x    frame=   94 fps= 25 q=41.0 size=       1kB time=00:00:01.26 bitrate=   4.7kbits/s speed=0.332x    frame=  112 fps= 26 q=41.0 size=       1kB time=00:00:01.62 bitrate=   3.7kbits/s speed=0.374x    frame=  130 fps= 27 q=41.0 size=       1kB time=00:00:01.98 bitrate=   3.0kbits/s speed=0.408x    frame=  137 fps= 16 q=41.0 size=       1kB time=00:00:02.12 bitrate=   2.8kbits/s speed=0.25x    frame=  138 fps= 15 q=41.0 size=       1kB time=00:00:02.14 bitrate=   2.8kbits/s speed=0.235x    frame=  155 fps= 16 q=41.0 size=       1kB time=00:00:02.48 bitrate=   2.4kbits/s speed=0.258x    frame=  160 fps= 15 q=41.0 size=       1kB time=00:00:02.58 bitrate=   2.3kbits/s speed=0.248x    frame=  167 fps= 15 q=41.0 size=       1kB time=00:00:02.72 bitrate=   2.2kbits/s speed=0.249x    frame=  184 fps= 16 q=41.0 size=       1kB time=00:00:03.06 bitrate=   2.0kbits/s speed=0.267x    frame=  196 fps= 16 q=41.0 size=    5150kB time=00:00:03.30 bitrate=12780.5kbits/s speed=0.274x    frame=  206 fps= 16 q=41.0 size=    5150kB time=00:00:03.50 bitrate=12050.4kbits/s speed=0.279x    frame=  215 fps= 16 q=42.0 size=    5150kB time=00:00:03.68 bitrate=11461.2kbits/s speed=0.281x    frame=  225 fps= 17 q=41.0 size=    5150kB time=00:00:03.88 bitrate=10870.5kbits/s speed=0.285x    frame=  239 fps= 17 q=41.0 size=    5150kB time=00:00:04.16 bitrate=10139.0kbits/s speed=0.294x    frame=  255 fps= 17 q=42.0 size=    5150kB time=00:00:04.48 bitrate=9415.0kbits/s speed=0.305x    frame=  271 fps= 18 q=42.0 size=    5150kB time=00:00:04.80 bitrate=8787.5kbits/s speed=0.316x    frame=  287 fps= 18 q=42.0 size=    8030kB time=00:00:05.12 bitrate=12844.9kbits/s speed=0.326x    frame=  293 fps= 18 q=41.0 size=    8030kB time=00:00:05.24 bitrate=12550.8kbits/s speed=0.323x    frame=  311 fps= 19 q=41.0 size=    8030kB time=00:00:05.60 bitrate=11744.1kbits/s speed=0.335x    frame=  329 fps= 19 q=41.0 size=    8030kB time=00:00:05.96 bitrate=11034.9kbits/s speed=0.345x    frame=  347 fps= 20 q=42.0 size=    8030kB time=00:00:06.32 bitrate=10406.4kbits/s speed=0.355x    frame=  365 fps= 20 q=41.0 size=    8030kB time=00:00:06.68 bitrate=9845.7kbits/s speed=0.365x    frame=  383 fps= 20 q=42.0 size=    8030kB time=00:00:07.04 bitrate=9342.3kbits/s speed=0.374x    frame=  401 fps= 21 q=41.0 size=    8030kB time=00:00:07.40 bitrate=8887.8kbits/s speed=0.383x    frame=  409 fps= 21 q=42.0 size=    8030kB time=00:00:07.56 bitrate=8699.8kbits/s speed=0.38x    frame=  417 fps= 20 q=42.0 size=    8030kB time=00:00:07.72 bitrate=8519.5kbits/s speed=0.378x    frame=  435 fps= 21 q=42.0 size=    8030kB time=00:00:08.08 bitrate=8139.9kbits/s speed=0.386x    frame=  452 fps= 21 q=42.0 size=   13176kB time=00:00:08.42 bitrate=12817.2kbits/s speed=0.392x    frame=  470 fps= 21 q=42.0 size=   13176kB time=00:00:08.78 bitrate=12291.7kbits/s speed= 0.4x    frame=  488 fps= 22 q=41.0 size=   13176kB time=00:00:09.14 bitrate=11807.7kbits/s speed=0.406x    frame=  500 fps= 22 q=41.0 Lsize=   15985kB time=00:00:09.98 bitrate=13119.6kbits/s speed=0.436x    
video:15980kB audio:0kB subtitle:0kB other streams:0kB global headers:0kB muxing overhead: 0.029804%
bench: utime=1.196s
bench: maxrss=1420852kB
